HIERARCHY
ROOT Hips
{
	OFFSET 0.000000 83.214638 0.000000
	CHANNELS 6 Xposition Yposition Zposition Xrotation Yrotation Zrotation
	JOINT Pelvis
	{
		OFFSET 0.000000 0.000000 0.000000
		CHANNELS 3 Xrotation Yrotation Zrotation
		JOINT LeftUpLeg
		{
			OFFSET 8.479700 -4.795502 -0.379100
			CHANNELS 3 Xrotation Yrotation Zrotation
			JOINT LeftLeg
			{
				OFFSET 0.024144 -32.555107 0.112900
				CHANNELS 3 Xrotation Yrotation Zrotation
				JOINT LeftFoot
				{
					OFFSET -0.024144 -32.638630 -3.012600
					CHANNELS 3 Xrotation Yrotation Zrotation
					JOINT LeftToeBase
					{
						OFFSET 0.970200 -13.225400 11.864200
						CHANNELS 3 Xrotation Yrotation Zrotation
						End Site
						{
							OFFSET 0.000000 12.319262 0.000000
						}
					}
					JOINT LFootTongue
					{
						OFFSET 1.142400 -1.059800 6.665200
						CHANNELS 3 Xrotation Yrotation Zrotation
						End Site
						{
							OFFSET 0.000000 12.319262 0.000000
						}
					}
				}
				JOINT LeftPantLeg
				{
					OFFSET 0.918482 -16.533964 -2.284700
					CHANNELS 3 Xrotation Yrotation Zrotation
					End Site
					{
						OFFSET 0.350399 24.744368 0.000000
					}
				}
			}
		}
		JOINT RightUpLeg
		{
			OFFSET -8.479700 -4.795502 -0.379100
			CHANNELS 3 Xrotation Yrotation Zrotation
			JOINT RightLeg
			{
				OFFSET -0.023144 -32.555092 0.112900
				CHANNELS 3 Xrotation Yrotation Zrotation
				JOINT RightFoot
				{
					OFFSET 0.023144 -32.638641 -3.012700
					CHANNELS 3 Xrotation Yrotation Zrotation
					JOINT RightToeBase
					{
						OFFSET -0.970200 -13.225400 11.864200
						CHANNELS 3 Xrotation Yrotation Zrotation
						End Site
						{
							OFFSET 0.000000 12.319244 0.000000
						}
					}
					JOINT RFootTongue
					{
						OFFSET -1.142200 -1.059800 6.665200
						CHANNELS 3 Xrotation Yrotation Zrotation
						End Site
						{
							OFFSET 0.000000 12.319243 0.000000
						}
					}
				}
				JOINT RightPantLeg
				{
					OFFSET -0.919482 -16.533978 -2.284800
					CHANNELS 3 Xrotation Yrotation Zrotation
					End Site
					{
						OFFSET -0.350400 24.744419 0.000000
					}
				}
			}
		}
	}
	JOINT Spine
	{
		OFFSET 0.000000 7.722000 1.166200
		CHANNELS 3 Xrotation Yrotation Zrotation
		JOINT Spine1
		{
			OFFSET 0.000000 12.024101 0.248800
			CHANNELS 3 Xrotation Yrotation Zrotation
			JOINT Spine2
			{
				OFFSET 0.000000 11.502998 -0.491200
				CHANNELS 3 Xrotation Yrotation Zrotation
				JOINT Neck
				{
					OFFSET 0.000000 18.430702 -3.123100
					CHANNELS 3 Xrotation Yrotation Zrotation
					JOINT Head
					{
						OFFSET 0.000000 9.051102 1.034000
						CHANNELS 3 Xrotation Yrotation Zrotation
						JOINT HairB
						{
							OFFSET 0.208400 24.786102 24.822300
							CHANNELS 3 Xrotation Yrotation Zrotation
							End Site
							{
								OFFSET 0.000000 32.263779 0.000000
							}
						}
						JOINT HairA
						{
							OFFSET -7.081100 24.428299 23.196600
							CHANNELS 3 Xrotation Yrotation Zrotation
							End Site
							{
								OFFSET 0.000000 32.263779 0.000000
							}
						}
						JOINT Hat
						{
							OFFSET 16.728800 15.048294 -15.439601
							CHANNELS 3 Xrotation Yrotation Zrotation
							End Site
							{
								OFFSET 0.000000 32.263779 0.000000
							}
						}
					}
				}
				JOINT LeftShoulder
				{
					OFFSET 6.197800 13.665199 -4.064700
					CHANNELS 3 Xrotation Yrotation Zrotation
					JOINT LeftArm
					{
						OFFSET 7.778100 -0.187103 -1.709300
						CHANNELS 3 Xrotation Yrotation Zrotation
						JOINT LeftForeArm
						{
							OFFSET 22.049376 0.000000 0.000000
							CHANNELS 3 Xrotation Yrotation Zrotation
							JOINT LeftHand
							{
								OFFSET 23.009392 0.000000 0.000000
								CHANNELS 3 Xrotation Yrotation Zrotation
								JOINT LeftHandThumb1
								{
									OFFSET 3.507191 -2.063065 3.133727
									CHANNELS 3 Xrotation Yrotation Zrotation
									JOINT LeftHandThumb2
									{
										OFFSET 3.101337 -1.790558 1.790558
										CHANNELS 3 Xrotation Yrotation Zrotation
										JOINT LeftHandThumb3
										{
											OFFSET 3.058640 -1.765907 1.765906
											CHANNELS 3 Xrotation Yrotation Zrotation
											End Site
											{
												OFFSET -0.415260 3.926476 -0.049563
											}
										}
									}
								}
								JOINT LeftHandIndex1
								{
									OFFSET 11.334419 -0.901459 3.706815
									CHANNELS 3 Xrotation Yrotation Zrotation
									JOINT LeftHandIndex2
									{
										OFFSET 3.283112 0.000000 0.000000
										CHANNELS 3 Xrotation Yrotation Zrotation
										JOINT LeftHandIndex3
										{
											OFFSET 3.323853 0.000000 0.000000
											CHANNELS 3 Xrotation Yrotation Zrotation
											End Site
											{
												OFFSET -1.135597 3.097809 0.402452
											}
										}
									}
								}
								JOINT LeftHandMiddle1
								{
									OFFSET 11.335861 0.000000 0.000000
									CHANNELS 3 Xrotation Yrotation Zrotation
									JOINT LeftHandMiddle2
									{
										OFFSET 3.410492 0.000000 0.000000
										CHANNELS 3 Xrotation Yrotation Zrotation
										JOINT LeftHandMiddle3
										{
											OFFSET 3.312172 0.000000 0.000000
											CHANNELS 3 Xrotation Yrotation Zrotation
											End Site
											{
												OFFSET -1.150200 3.080154 0.400270
											}
										}
									}
								}
								JOINT LeftHandRing1
								{
									OFFSET 11.514786 -0.013176 -3.003090
									CHANNELS 3 Xrotation Yrotation Zrotation
									JOINT LeftHandRing2
									{
										OFFSET 3.053307 0.000000 0.000000
										CHANNELS 3 Xrotation Yrotation Zrotation
										JOINT LeftHandRing3
										{
											OFFSET 3.295807 0.000000 0.000000
											CHANNELS 3 Xrotation Yrotation Zrotation
											End Site
											{
												OFFSET -1.281006 3.013344 0.375733
											}
										}
									}
								}
								JOINT LeftHandPinky1
								{
									OFFSET 10.518692 -0.960396 -5.730441
									CHANNELS 3 Xrotation Yrotation Zrotation
									JOINT LeftHandPinky2
									{
										OFFSET 2.861649 0.000000 0.000000
										CHANNELS 3 Xrotation Yrotation Zrotation
										JOINT LeftHandPinky3
										{
											OFFSET 2.863380 0.000000 0.000000
											CHANNELS 3 Xrotation Yrotation Zrotation
											End Site
											{
												OFFSET -0.843597 2.711159 0.369971
											}
										}
									}
								}
							}
							JOINT LSleeve
							{
								OFFSET 6.676277 -0.344902 -1.011730
								CHANNELS 3 Xrotation Yrotation Zrotation
								End Site
								{
									OFFSET 0.000000 14.885353 0.000000
								}
							}
						}
					}
				}
				JOINT RightShoulder
				{
					OFFSET -6.197800 13.665199 -4.064700
					CHANNELS 3 Xrotation Yrotation Zrotation
					JOINT RightArm
					{
						OFFSET -7.778100 -0.187103 -1.709300
						CHANNELS 3 Xrotation Yrotation Zrotation
						JOINT RightForeArm
						{
							OFFSET -22.049376 0.000000 0.000000
							CHANNELS 3 Xrotation Yrotation Zrotation
							JOINT RightHand
							{
								OFFSET -23.009392 0.000000 0.000000
								CHANNELS 3 Xrotation Yrotation Zrotation
								JOINT RightHandThumb1
								{
									OFFSET -3.507191 -2.063065 3.133727
									CHANNELS 3 Xrotation Yrotation Zrotation
									JOINT RightHandThumb2
									{
										OFFSET -3.101337 -1.790558 1.790558
										CHANNELS 3 Xrotation Yrotation Zrotation
										JOINT RightHandThumb3
										{
											OFFSET -3.058640 -1.765907 1.765906
											CHANNELS 3 Xrotation Yrotation Zrotation
											End Site
											{
												OFFSET 0.415260 3.926476 -0.049563
											}
										}
									}
								}
								JOINT RightHandIndex1
								{
									OFFSET -11.334419 -0.901459 3.706815
									CHANNELS 3 Xrotation Yrotation Zrotation
									JOINT RightHandIndex2
									{
										OFFSET -3.283112 0.000000 0.000000
										CHANNELS 3 Xrotation Yrotation Zrotation
										JOINT RightHandIndex3
										{
											OFFSET -3.323853 0.000000 0.000000
											CHANNELS 3 Xrotation Yrotation Zrotation
											End Site
											{
												OFFSET 1.135597 3.097809 0.402452
											}
										}
									}
								}
								JOINT RightHandMiddle1
								{
									OFFSET -11.335861 0.000000 0.000000
									CHANNELS 3 Xrotation Yrotation Zrotation
									JOINT RightHandMiddle2
									{
										OFFSET -3.410492 0.000000 0.000000
										CHANNELS 3 Xrotation Yrotation Zrotation
										JOINT RightHandMiddle3
										{
											OFFSET -3.312172 0.000000 0.000000
											CHANNELS 3 Xrotation Yrotation Zrotation
											End Site
											{
												OFFSET 1.150200 3.080154 0.400270
											}
										}
									}
								}
								JOINT RightHandRing1
								{
									OFFSET -11.514786 -0.013176 -3.003090
									CHANNELS 3 Xrotation Yrotation Zrotation
									JOINT RightHandRing2
									{
										OFFSET -3.053307 0.000000 0.000000
										CHANNELS 3 Xrotation Yrotation Zrotation
										JOINT RightHandRing3
										{
											OFFSET -3.295807 0.000000 0.000000
											CHANNELS 3 Xrotation Yrotation Zrotation
											End Site
											{
												OFFSET 1.281006 3.013344 0.375733
											}
										}
									}
								}
								JOINT RightHandPinky1
								{
									OFFSET -10.518692 -0.960396 -5.730441
									CHANNELS 3 Xrotation Yrotation Zrotation
									JOINT RightHandPinky2
									{
										OFFSET -2.861649 0.000000 0.000000
										CHANNELS 3 Xrotation Yrotation Zrotation
										JOINT RightHandPinky3
										{
											OFFSET -2.863380 0.000000 0.000000
											CHANNELS 3 Xrotation Yrotation Zrotation
											End Site
											{
												OFFSET 0.843597 2.711159 0.369971
											}
										}
									}
								}
							}
							JOINT RSleeve
							{
								OFFSET -6.676277 -0.344902 -1.011730
								CHANNELS 3 Xrotation Yrotation Zrotation
								End Site
								{
									OFFSET 0.000000 14.885353 0.000000
								}
							}
						}
					}
				}
				JOINT Backpack
				{
					OFFSET 0.000000 -2.471497 36.677502
					CHANNELS 3 Xrotation Yrotation Zrotation
					End Site
					{
						OFFSET 0.000000 20.427315 0.000000
					}
				}
				JOINT Hood
				{
					OFFSET 0.000000 18.754097 -10.431000
					CHANNELS 3 Xrotation Yrotation Zrotation
					JOINT Hood1
					{
						OFFSET 0.000000 -5.011002 -7.685901
						CHANNELS 3 Xrotation Yrotation Zrotation
						End Site
						{
							OFFSET 0.000000 9.175140 0.000000
						}
					}
				}
				JOINT LHoodieString
				{
					OFFSET 5.250500 16.397697 3.089900
					CHANNELS 3 Xrotation Yrotation Zrotation
					JOINT LHoodieString1
					{
						OFFSET 0.257700 -6.364304 3.694600
						CHANNELS 3 Xrotation Yrotation Zrotation
						JOINT LHoodieString2
						{
							OFFSET 0.000000 -9.643799 2.679100
							CHANNELS 3 Xrotation Yrotation Zrotation
							End Site
							{
								OFFSET 0.000000 10.009018 0.000000
							}
						}
					}
				}
				JOINT RHoodieString
				{
					OFFSET -5.250500 16.397697 3.089900
					CHANNELS 3 Xrotation Yrotation Zrotation
					JOINT RHoodieString1
					{
						OFFSET -0.257700 -6.364304 3.694600
						CHANNELS 3 Xrotation Yrotation Zrotation
						JOINT RHoodieString2
						{
							OFFSET 0.000000 -9.643799 2.679100
							CHANNELS 3 Xrotation Yrotation Zrotation
							End Site
							{
								OFFSET 0.000000 10.009018 0.000000
							}
						}
					}
				}
			}
			JOINT LBackpack_Strap
			{
				OFFSET 15.223200 -7.719803 -6.610900
				CHANNELS 3 Xrotation Yrotation Zrotation
				End Site
				{
					OFFSET 0.000000 16.040596 0.000000
				}
			}
			JOINT RBackpack_Strap
			{
				OFFSET -15.223000 -7.719803 -6.610900
				CHANNELS 3 Xrotation Yrotation Zrotation
				End Site
				{
					OFFSET 0.000000 16.040596 0.000000
				}
			}
		}
	}
	JOINT BoyFacialAnim_Joint
	{
		OFFSET 1.000000 -82.208099 -1.550900
		CHANNELS 3 Xrotation Yrotation Zrotation
		End Site
		{
			OFFSET 0.000000 30.012791 0.000000
		}
	}
}
MOTION
Frames: 4
Frame Time: 0.016667
1.431000 43.671379 -3.335770 1.060424 -29.022109 8.855618 0.000000 -0.000000 -0.000000 -77.579870 -13.045507 46.642163 76.873103 9.028088 -5.816219 22.613525 0.584633 -12.916549 -0.000000 0.000000 -0.000000 -0.000000 0.000000 -0.000000 0.000001 0.000000 -0.000003 -28.890744 -1.253714 -17.555203 111.229323 4.481175 -0.890940 27.254529 3.177656 17.324773 0.000001 0.000001 0.000001 0.000001 0.000001 0.000001 0.000001 -0.000000 -0.000002 3.575447 -5.655827 -4.148533 2.855675 -4.198784 -2.072993 2.773303 -4.260252 -2.035173 0.447418 2.821360 2.164896 0.278334 15.546817 4.247277 -0.000000 0.000002 -0.000001 -0.000000 0.000002 -0.000001 -0.000000 0.000002 -0.000001 1.530508 -0.690787 -2.366978 -3.234537 -12.111232 -50.675366 -0.002647 -87.973315 -0.002656 -53.085108 20.313616 41.451865 -1.540051 3.690177 6.142350 3.939065 7.948709 0.746809 -0.000003 0.000006 -0.000001 1.016541 3.605837 -31.478696 1.016535 3.605843 -31.478713 0.000000 0.000001 -0.000005 1.299292 4.030451 -35.722876 1.301556 4.033586 -35.754988 0.000002 0.000002 0.000002 1.751617 4.592877 -41.733685 1.751616 4.592885 -41.733706 -0.000002 0.000002 -0.000002 4.911455 7.752482 -44.887870 2.046415 0.814407 -45.446976 0.000003 0.000001 -0.000002 -0.000000 0.000000 0.000001 5.585477 17.928709 2.373356 -33.414662 -16.065389 41.084640 0.004451 92.810434 -0.004458 44.885363 -28.255050 9.382487 -1.849249 -3.581793 -6.586135 4.637201 -8.634133 -0.225408 0.000001 0.000000 0.000000 0.081186 -1.061624 8.746197 0.001257 -0.132366 1.086260 -0.000003 -0.000000 -0.000000 0.493227 -2.576621 21.670008 0.002549 -0.188687 1.548424 -0.000003 -0.000002 -0.000002 0.682830 -3.009786 25.559236 0.002550 -0.188676 1.548418 -0.000001 -0.000000 0.000000 1.013754 -3.620326 31.277123 0.002550 -0.188688 1.548416 0.000001 -0.000002 -0.000000 -0.000004 -0.000001 -0.000000 -0.000000 -0.000001 -0.000000 -0.000000 -0.000001 -0.000000 -0.000000 -0.000001 -0.000000 -0.000000 -0.000001 -0.000000 -0.000000 -0.000001 0.000000 -0.000000 0.000001 -0.000000 -0.000000 -0.000001 -0.000000 -0.000000 -0.000001 0.000000 -0.000000 0.000001 -0.000000 0.000000 -0.000001 0.000000 0.000000 -0.000001 0.000000 0.000000 -0.000000 -0.000000 
1.406860 43.669319 -3.345450 1.123208 -29.028024 8.916300 -0.000001 0.000000 0.000001 -77.595368 -12.990580 46.722633 76.795826 9.019302 -5.873294 22.685729 0.653744 -12.881137 0.000000 0.000002 0.000000 0.000000 0.000002 0.000000 -0.000000 0.000000 0.000000 -28.988416 -1.246650 -17.510997 111.273979 4.462597 -0.888436 27.181119 3.139871 17.190283 0.000001 0.000000 -0.000000 0.000001 0.000000 -0.000000 -0.000000 -0.000000 -0.000002 3.569136 -5.598902 -4.277974 2.844911 -4.152762 -2.149814 2.768607 -4.212021 -2.111293 0.463155 2.837770 2.357654 0.012652 15.814927 4.562047 0.000000 -0.000000 -0.000000 0.000000 -0.000000 -0.000000 0.000000 -0.000000 -0.000000 1.530164 -0.744389 -1.917310 -3.271989 -12.105438 -51.033036 0.003203 -88.077359 0.003105 -52.890113 20.116166 41.398716 -1.540048 3.690177 6.142352 3.939068 7.948719 0.746808 0.000001 0.000002 0.000000 1.016542 3.605841 -31.478692 1.016538 3.605835 -31.478713 -0.000001 -0.000000 -0.000004 1.299295 4.030452 -35.722876 1.301557 4.033588 -35.754988 -0.000003 -0.000001 -0.000000 1.751618 4.592874 -41.733685 1.751617 4.592886 -41.733706 -0.000003 0.000000 -0.000004 4.911456 7.752488 -44.887870 2.046415 0.814409 -45.446972 0.000001 0.000001 -0.000000 -0.000001 0.000003 0.000001 5.560241 17.956436 2.651590 -32.494430 -15.150546 39.610282 0.003751 94.692923 -0.003725 40.622086 -28.211605 8.823208 -1.849249 -3.581792 -6.586136 4.637200 -8.634128 -0.225406 -0.000000 0.000002 -0.000001 0.081132 -1.061265 8.743206 0.000151 -0.046015 0.377551 -0.000000 0.000000 0.000002 0.505642 -2.607633 21.944576 0.000309 -0.065739 0.539480 -0.000001 -0.000001 -0.000000 0.699984 -3.045333 25.883922 0.000307 -0.065746 0.539487 -0.000001 -0.000002 -0.000000 1.039061 -3.661581 31.675658 0.000311 -0.065753 0.539486 0.000001 -0.000001 0.000000 0.000003 0.000000 0.000001 -0.000000 0.000000 -0.000000 -0.000000 0.000000 -0.000000 -0.000000 0.000000 -0.000000 -0.000000 0.000000 -0.000000 -0.000000 0.000000 -0.000000 -0.000000 0.000002 -0.000000 -0.000000 0.000000 -0.000000 -0.000000 0.000000 -0.000000 -0.000000 0.000002 -0.000000 -0.000000 -0.000002 0.000001 -0.000000 -0.000002 0.000001 -0.000001 0.000000 0.000001 
1.380760 43.666344 -3.355554 1.191293 -29.026702 8.987893 -0.000000 -0.000001 0.000000 -77.620934 -12.925721 46.796874 76.721391 9.016073 -5.930226 22.748269 0.691703 -12.841131 -0.000000 -0.000001 0.000000 -0.000000 -0.000001 0.000000 0.000002 -0.000002 0.000001 -29.085643 -1.242694 -17.476852 111.310985 4.454551 -0.887565 27.128227 3.110841 17.085052 -0.000001 -0.000001 -0.000002 -0.000001 -0.000001 -0.000002 -0.000000 -0.000000 -0.000001 3.556409 -5.551005 -4.407159 2.829096 -4.112357 -2.227857 2.758115 -4.169719 -2.188755 0.482739 2.858632 2.531982 -0.284940 16.079348 4.861552 0.000001 0.000003 -0.000001 0.000001 0.000003 -0.000001 0.000001 0.000003 -0.000001 1.512196 -0.744083 -1.544893 -3.279708 -12.155385 -51.329828 -0.003702 -88.114201 -0.003710 -52.731625 19.892615 41.299162 -1.540052 3.690176 6.142352 3.939065 7.948719 0.746807 -0.000000 0.000004 -0.000001 1.016542 3.605842 -31.478692 1.016538 3.605848 -31.478709 -0.000000 -0.000002 -0.000004 1.299291 4.030451 -35.722873 1.301558 4.033589 -35.754985 -0.000001 -0.000001 0.000002 1.751616 4.592874 -41.733689 1.751612 4.592890 -41.733699 -0.000001 -0.000001 -0.000004 4.911456 7.752482 -44.887870 2.046413 0.814412 -45.446976 0.000001 0.000000 -0.000000 0.000001 -0.000001 -0.000002 5.540491 17.992960 2.918232 -31.912918 -14.467700 38.297649 0.001613 96.455187 -0.001625 36.803108 -27.544602 9.079557 -1.849248 -3.581788 -6.586134 4.637203 -8.634131 -0.225405 -0.000001 0.000002 0.000000 0.081078 -1.060911 8.740247 0.000003 -0.003760 0.030853 -0.000001 -0.000002 -0.000000 0.514995 -2.630695 22.149270 0.000003 -0.003836 0.031514 0.000001 0.000005 0.000004 0.712895 -3.071766 26.125996 -0.000001 -0.003843 0.031517 -0.000003 -0.000004 -0.000000 1.058116 -3.692214 31.972775 0.000002 -0.003836 0.031517 0.000000 -0.000002 0.000003 0.000003 0.000002 -0.000001 0.000000 -0.000003 0.000000 0.000000 -0.000003 0.000000 0.000000 -0.000003 0.000000 0.000000 -0.000003 0.000000 0.000000 -0.000003 0.000001 0.000000 0.000000 0.000000 0.000000 -0.000003 0.000000 0.000000 -0.000003 0.000001 0.000000 0.000000 0.000000 -0.000001 -0.000003 0.000000 -0.000001 -0.000003 0.000000 -0.000000 -0.000001 0.000000 
1.351039 43.663490 -3.365940 1.257751 -29.011355 9.061148 0.000000 -0.000001 0.000000 -77.642961 -12.864848 46.863874 76.648984 9.019109 -5.999274 22.801417 0.695689 -12.797591 0.000000 0.000000 0.000000 0.000000 0.000000 0.000000 -0.000000 -0.000001 -0.000001 -29.171212 -1.254021 -17.450435 111.332787 4.449481 -0.890506 27.101677 3.092102 17.012229 -0.000001 -0.000001 -0.000001 -0.000001 -0.000001 -0.000001 -0.000000 -0.000000 -0.000002 3.539883 -5.515641 -4.535230 2.810491 -4.080788 -2.306024 2.744169 -4.136570 -2.266375 0.495816 2.875334 2.696919 -0.557786 16.320416 5.115390 -0.000000 -0.000000 -0.000000 -0.000000 -0.000000 -0.000000 -0.000000 -0.000000 -0.000000 1.480364 -0.701478 -1.238072 -3.264498 -12.231491 -51.554322 0.001118 -88.164840 0.001040 -52.644100 19.692574 41.206149 -1.540049 3.690171 6.142355 3.939064 7.948724 0.746807 0.000000 -0.000001 0.000001 1.016542 3.605837 -31.478689 1.016536 3.605838 -31.478709 -0.000002 -0.000003 -0.000001 1.299290 4.030452 -35.722873 1.301551 4.033588 -35.754985 -0.000002 -0.000002 -0.000002 1.751615 4.592879 -41.733689 1.751614 4.592885 -41.733709 -0.000003 0.000001 -0.000002 4.911453 7.752484 -44.887870 2.046416 0.814406 -45.446976 -0.000000 0.000001 -0.000000 0.000002 -0.000001 -0.000002 5.526702 18.040664 3.182611 -31.850931 -14.060280 37.299540 0.000429 98.091673 -0.000443 34.080257 -26.275750 10.628202 -1.849249 -3.581787 -6.586134 4.637199 -8.634133 -0.225406 0.000001 -0.000001 -0.000000 0.081025 -1.060576 8.737469 0.000007 0.003399 -0.000035 -0.000000 -0.000000 -0.000002 0.521049 -2.645503 22.280711 0.000005 0.008586 -0.000047 0.000001 -0.000001 -0.000000 0.721250 -3.088722 26.281448 0.000005 0.008584 0.000030 -0.000000 -0.000004 0.000003 1.070439 -3.711845 32.163562 0.000006 0.008593 0.000034 -0.000000 -0.000003 -0.000004 -0.000002 -0.000002 -0.000003 -0.000000 -0.000000 -0.000000 -0.000000 -0.000000 -0.000000 -0.000000 -0.000000 -0.000000 -0.000000 -0.000000 -0.000000 -0.000000 -0.000000 -0.000000 -0.000000 -0.000000 -0.000000 -0.000000 -0.000000 -0.000000 -0.000000 -0.000000 -0.000000 -0.000000 -0.000000 -0.000000 -0.000000 -0.000001 0.000000 -0.000000 -0.000001 0.000000 0.000000 -0.000001 0.000000 
